#!OML:ASF E:\Mandelcareful walks\Project 1\Capture day 1\Session 1\Subject1.ASF
:FULLY-SPECIFIED
:DEGREES
648
root -3.58358 14.9567 -0.254334 21.2599 48.8012 11.4019
lowerback 38.7015 -1.32431 -4.61987
upperback 7.18632 -2.88449 0.220264
thorax -10.6914 -0.982363 3.80591
lowerneck -29.8666 7.30708 1.70471
upperneck 17.238 12.4324 -11.9066
head 11.4601 4.22424 -2.36389
rclavicle 3.16068e-014 2.44505e-014
rhumerus -7.37509 7.38183 -84.2475
rradius 66.5004
rwrist -16.5501
rhand -20.8733 -26.8806
rfingers 7.12502
rthumb 5.49671 -56.7893
lclavicle 3.16068e-014 2.44505e-014
lhumerus 5.50526 -17.7627 76.8573
lradius 44.7547
lwrist 17.9952
lhand -22.2163 -13.0352
lfingers 7.12502
lthumb 4.19992 16.9031
rfemur -56.1245 5.30151 5.03252
rtibia 66.2074
rfoot -20.2545 14.3973
rtoes 10.3591
lfemur -33.1193 42.1155 -15.8809
ltibia 61.4886
lfoot -25.5215 24.4618
ltoes -5.59605
649
root -3.60451 14.9702 -0.221793 21.6885 49.3714 11.6618
lowerback 38.1936 -1.37317 -4.47671
upperback 7.33944 -2.89992 -0.1236
thorax -10.3647 -1.00148 3.35255
lowerneck -29.6923 8.13742 2.36647
upperneck 17.4301 13.5158 -12.5466
head 11.696 4.66945 -2.48551
rclavicle 2.5842e-015 -4.96962e-015
rhumerus -7.55375 7.65386 -84.4407
rradius 66.6968
rwrist -16.4252
rhand -20.9396 -27.1256
rfingers 7.12502
rthumb 5.4327 -57.036
lclavicle 2.5842e-015 -4.96962e-015
lhumerus 5.37994 -18.334 76.4499
lradius 46.4406
lwrist 18.3853
lhand -22.1427 -13.3729
lfingers 7.12502
lthumb 4.27094 16.5641
rfemur -56.0936 5.238 5.038
rtibia 66.085
rfoot -20.3442 13.8139
rtoes 10.037
lfemur -33.3645 41.7524 -15.9961
ltibia 61.0755
lfoot -25.1884 24.2678
ltoes -6.55797
650
root -3.61973 14.9839 -0.190078 22.0944 50.0095 12.115
lowerback 38.2809 -1.1285 -4.78311
upperback 7.18884 -2.70742 0.0177047
thorax -10.5571 -0.899478 3.59218
lowerneck -29.4663 8.68173 2.28984
upperneck 18.0429 14.5477 -13.013
head 12.0277 5.03887 -2.43734
rclavicle 9.6013e-014 -4.73108e-014
rhumerus -8.17267 8.15408 -83.7578
rradius 66.937
rwrist -16.6559
rhand -20.9594 -27.1767
rfingers 7.12502
rthumb 5.41358 -57.0875
lclavicle 9.6013e-014 -4.73108e-014
lhumerus 4.73466 -18.7052 77.0509
lradius 48.2633
lwrist 18.6975
lhand -21.8635 -13.4443
lfingers 7.12502
lthumb 4.54053 16.4871
rfemur -55.856 5.05122 4.9564
rtibia 66.0578
rfoot -20.5562 13.3364
rtoes 9.77226
lfemur -33.3947 41.3251 -16.1121
ltibia 60.7446
lfoot -24.9309 24.1192
ltoes -7.16175
651
root -3.62168 14.9963 -0.157432 22.2736 50.7094 12.452
lowerback 38.1885 -1.21132 -4.43411
upperback 7.2732 -2.70704 -0.370022
thorax -10.4643 -0.903414 2.98841
lowerneck -29.2309 9.23397 2.91299
upperneck 18.4873 15.2911 -13.5308
head 12.3331 5.32847 -2.57418
rclavicle -3.02153e-014 3.37934e-014
rhumerus -8.53601 8.24194 -83.812
rradius 67.0589
rwrist -16.8125
rhand -20.9944 -26.9353
rfingers 7.12502
rthumb 5.37979 -56.847
lclavicle -3.02153e-014 3.37934e-014
lhumerus 4.29887 -19.224 76.9452
lradius 50.2667
lwrist 19.3333
lhand -21.8215 -13.4029
lfingers 7.12502
lthumb 4.58109 16.5276
rfemur -55.3653 4.83306 4.98241
rtibia 65.9459
rfoot -20.8496 12.7923
rtoes 9.11229
lfemur -33.1954 40.9365 -16.0546
ltibia 60.3645
lfoot -24.6863 24.0749
ltoes -7.38837
652
root -3.64448 14.9989 -0.12114 22.606 51.4758 12.6303
lowerback 38.1892 -0.85662 -4.84665
upperback 7.14907 -2.39143 -0.0516357
thorax -10.5943 -0.74793 3.42109
lowerneck -29.187 9.79218 3.38544
upperneck 19.124 16.327 -14.5608
head 12.8504 5.64879 -2.80912
rclavicle -7.03698e-014 1.76918e-014
rhumerus -8.88332 8.6064 -83.1907
rradius 67.1169
rwrist -16.9334
rhand -20.6655 -26.3098
rfingers 7.12502
rthumb 5.69733 -56.2132
lclavicle -7.03698e-014 1.76918e-014
lhumerus 3.66481 -19.0789 77.8795
lradius 52.217
lwrist 19.4105
lhand -21.9105 -13.4549
lfingers 7.12502
lthumb 4.4952 16.4774
rfemur -55.303 4.65598 5.15313
rtibia 65.9375
rfoot -20.9963 12.1373
rtoes 8.73701
lfemur -33.492 40.7202 -16.0199
ltibia 60.0507
lfoot -24.3076 23.8326
ltoes -7.76151
653
root -3.61366 15.0293 -0.100665 22.5266 52.4264 12.9429
lowerback 38.3353 -1.19778 -3.9214
upperback 7.3598 -2.49301 -0.550241
thorax -10.4642 -0.805693 2.43923
lowerneck -29.37 10.2494 3.91825
upperneck 19.794 17.0084 -14.9472
head 13.3279 5.88009 -2.88576
rclavicle 6.34123e-014 -4.17448e-014
rhumerus -9.14979 8.47103 -83.3771
rradius 67.2477
rwrist -16.9031
rhand -19.8226 -25.3075
rfingers 7.12502
rthumb 6.51107 -55.1874
lclavicle 6.34123e-014 -4.17448e-014
lhumerus 3.49765 -19.4502 77.6868
lradius 54.192
lwrist 19.6267
lhand -21.9305 -13.815
lfingers 7.12502
lthumb 4.47589 16.1177
rfemur -54.3077 4.08965 5.21704
rtibia 65.7552
rfoot -21.205 11.9825
rtoes 8.65221
lfemur -32.8573 39.8617 -15.7384
ltibia 59.6389
lfoot -24.3754 23.7343
ltoes -8.12931
654
root -3.62238 15.0368 -0.0716645 22.864 53.3788 13.3859
lowerback 38.3908 -1.26807 -3.60536
upperback 7.42703 -2.47402 -0.805327
thorax -10.4343 -0.795859 1.99126
lowerneck -29.4804 10.5355 4.21005
upperneck 20.439 17.521 -15.2236
head 13.7404 6.03851 -2.92284
rclavicle 3.43897e-014 5.76476e-015
rhumerus -9.612 8.82556 -83.3466
rradius 67.8681
rwrist -17.5856
rhand -20.3886 -26.5405
rfingers 7.12502
rthumb 5.96465 -56.4365
lclavicle 3.43897e-014 5.76476e-015
lhumerus 3.12867 -19.8619 77.7482
lradius 56.171
lwrist 19.6567
lhand -21.7489 -14.5246
lfingers 7.12502
lthumb 4.65124 15.4043
rfemur -53.8834 3.66567 5.28685
rtibia 65.7259
rfoot -21.3482 11.4986
rtoes 8.48418
lfemur -32.8929 39.4015 -15.6631
ltibia 59.3187
lfoot -23.8271 23.5196
ltoes -8.89534
655
root -3.63828 15.0493 -0.0334791 23.1867 54.1071 13.6805
lowerback 38.2741 -1.1397 -3.72446
upperback 7.4441 -2.3579 -0.872908
thorax -10.3772 -0.739076 1.93111
lowerneck -29.2733 10.7488 4.34017
upperneck 20.9326 18.0107 -15.5826
head 14.0337 6.1918 -2.97801
rclavicle -1.19271e-014 2.90226e-014
rhumerus -9.96915 8.93926 -83.1327
rradius 67.8027
rwrist -17.1312
rhand -19.5892 -25.4941
rfingers 7.12502
rthumb 6.73638 -55.3669
lclavicle -1.19271e-014 2.90226e-014
lhumerus 2.35452 -19.7753 78.2428
lradius 58.164
lwrist 19.1409
lhand -24.3601 -16.034
lfingers 7.12502
lthumb 2.12956 13.9351
rfemur -53.614 3.37467 5.42814
rtibia 65.6568
rfoot -21.4466 11.1308
rtoes 8.95374
lfemur -32.994 39.1964 -15.5971
ltibia 58.9604
lfoot -23.2228 23.2424
ltoes -9.8363
656
root -3.65076 15.0565 -0.00107828 23.4798 55.064 14.0909
lowerback 38.5054 -1.11693 -4.18719
upperback 7.30777 -2.46831 -0.494295
thorax -10.5667 -0.77298 2.62874
lowerneck -28.6977 10.9822 3.87043
upperneck 21.371 18.8178 -16.0033
head 14.2286 6.4522 -2.89671
rclavicle -1.19072e-013 7.85199e-014
rhumerus -10.4578 10.3364 -82.5507
rradius 68.2226
rwrist -17.5916
rhand -20.0113 -26.0131
rfingers 7.12502
rthumb 6.32894 -55.8986
lclavicle -1.19072e-013 7.85199e-014
lhumerus 1.13875 -18.6298 79.3563
lradius 60.1229
lwrist 18.7554
lhand -24.3612 -16.7792
lfingers 7.12502
lthumb 2.12857 13.1899
rfemur -53.1602 3.04416 5.52948
rtibia 65.6694
rfoot -21.7235 10.617
rtoes 9.00831
lfemur -32.9967 38.71 -15.4429
ltibia 58.7059
lfoot -22.7155 22.9141
ltoes -10.3912
657
root -3.66673 15.0624 0.0297001 23.958 55.9396 14.4896
lowerback 38.2975 -1.19281 -3.6748
upperback 7.49828 -2.39407 -1.00042
thorax -10.3295 -0.746382 1.78055
lowerneck -29.0681 11.0438 4.20526
upperneck 22.288 18.9545 -15.9331
head 14.7403 6.4561 -2.89528
rclavicle 3.08116e-014 -3.91606e-014
rhumerus -10.6207 9.82715 -82.937
rradius 68.4129
rwrist -17.2842
rhand -20.2793 -26.0862
rfingers 7.12502
rthumb 6.07019 -55.9792
lclavicle 3.08116e-014 -3.91606e-014
lhumerus 1.25216 -19.1232 78.9108
lradius 61.8402
lwrist 18.8206
lhand -23.3317 -16.2039
lfingers 7.12502
lthumb 3.12276 13.753
rfemur -52.9989 2.66743 5.65018
rtibia 65.6996
rfoot -21.9354 10.0031
rtoes 8.36011
lfemur -33.2721 38.3853 -15.4482
ltibia 58.4929
lfoot -22.3752 22.4946
ltoes -9.89452
658
root -3.68749 15.0611 0.0600565 24.3848 56.7952 14.7612
lowerback 38.1427 -1.11032 -3.59472
upperback 7.5362 -2.25927 -1.11286
thorax -10.2474 -0.684711 1.56061
lowerneck -28.9523 11.0444 4.22424
upperneck 23.0404 19.1739 -16.0207
head 15.0978 6.4935 -2.89902
rclavicle 1.72943e-014 1.90833e-014
rhumerus -10.8433 9.81807 -82.9534
rradius 68.5156
rwrist -17.0556
rhand -20.3144 -26.0167
rfingers 7.12502
rthumb 6.03632 -55.9107
lclavicle 1.72943e-014 1.90833e-014
lhumerus 1.08602 -19.1655 78.94
lradius 63.38
lwrist 18.6236
lhand -22.9931 -15.5597
lfingers 7.12502
lthumb 3.44976 14.3921
rfemur -52.9787 2.32971 5.86124
rtibia 65.7823
rfoot -22.0638 9.36237
rtoes 7.80741
lfemur -33.6881 38.1512 -15.4216
ltibia 58.3127
lfoot -22.0427 22.0953
ltoes -9.77641
659
root -3.70633 15.0567 0.0904928 24.845 57.6255 15.1096
lowerback 38.1118 -0.923748 -3.72094
upperback 7.46701 -2.06892 -1.06475
thorax -10.3151 -0.592536 1.60124
lowerneck -28.5935 10.9864 4.10754
upperneck 23.7265 19.3716 -16.1298
head 15.3691 6.52907 -2.90303
rclavicle -7.99114e-014 1.08934e-013
rhumerus -11.3552 9.97807 -82.7736
rradius 68.8472
rwrist -17.1123
rhand -20.2954 -25.9878
rfingers 7.12502
rthumb 6.05467 -55.8813
lclavicle -7.99114e-014 1.08934e-013
lhumerus 0.553047 -19.124 79.3211
lradius 64.919
lwrist 18.8783
lhand -23.3093 -15.606
lfingers 7.12502
lthumb 3.14439 14.3505
rfemur -52.9319 2.05024 6.01102
rtibia 65.8969
rfoot -22.2887 8.77799
rtoes 7.10626
lfemur -34.0782 37.9006 -15.4297
ltibia 58.1238
lfoot -21.4847 21.8151
ltoes -10.7327
660
root -3.72106 15.0607 0.1219 25.5632 58.3623 15.7931
lowerback 38.0379 -0.780232 -3.88357
upperback 7.48402 -1.95373 -1.17271
thorax -10.2715 -0.533084 1.52192
lowerneck -28.355 10.9537 4.02439
upperneck 24.3562 19.5509 -16.1647
head 15.6316 6.56501 -2.88314
rclavicle -1.72943e-014 4.67144e-014
rhumerus -11.6392 9.96334 -82.7601
rradius 69.0458
rwrist -17.0202
rhand -20.1128 -25.775
rfingers 7.12502
rthumb 6.23092 -55.6633
lclavicle -1.72943e-014 4.67144e-014
lhumerus 0.00549345 -18.9957 79.6247
lradius 66.4524
lwrist 19.1526
lhand -23.9791 -15.7836
lfingers 7.12502
lthumb 2.49755 14.1815
rfemur -52.8 1.72546 5.94781
rtibia 65.9838
rfoot -22.5382 8.32133
rtoes 6.76797
lfemur -34.3644 37.6537 -15.6295
ltibia 57.8989
lfoot -20.8657 21.568
ltoes -12.1115
661
root -3.73451 15.0678 0.151371 26.3444 59.143 16.5949
lowerback 38.0032 -0.729468 -4.0714
upperback 7.60252 -1.95242 -1.30141
thorax -10.1215 -0.524163 1.47805
lowerneck -28.3395 10.9549 3.90923
upperneck 24.9544 19.7835 -16.1854
head 15.9319 6.60823 -2.83151
rclavicle -3.79679e-014 1.63003e-014
rhumerus -11.547 10.0607 -82.7921
rradius 69.0762
rwrist -16.9606
rhand -19.9522 -25.3131
rfingers 7.12502
rthumb 6.38601 -55.1968
lclavicle -3.79679e-014 1.63003e-014
lhumerus -0.373999 -18.4994 79.8579
lradius 67.8516
lwrist 19.1589
lhand -24.5348 -15.9718
lfingers 7.12502
lthumb 1.96089 13.9989
rfemur -52.5791 1.29925 5.85592
rtibia 66.0198
rfoot -22.6874 7.93809
rtoes 6.81568
lfemur -34.5599 37.3359 -15.8155
ltibia 57.6516
lfoot -20.4744 21.2191
ltoes -12.4524
662
root -3.74754 15.075 0.1743 26.762 60.1631 17.1581
lowerback 38.407 -0.738224 -4.07502
upperback 7.65 -1.96093 -1.34013
thorax -10.2072 -0.514699 1.4421
lowerneck -28.6384 11.0106 4.04716
upperneck 25.9085 20.0928 -16.2187
head 16.5212 6.6566 -2.80637
rclavicle 4.63168e-014 1.98785e-015
rhumerus -11.7469 10.2892 -82.7584
rradius 69.4382
rwrist -17.2258
rhand -20.2457 -24.8522
rfingers 7.12502
rthumb 6.10261 -54.7443
lclavicle 4.63168e-014 1.98785e-015
lhumerus -0.751108 -18.0322 80.0924
lradius 69.1227
lwrist 19.3934
lhand -24.7911 -16.2328
lfingers 7.12502
lthumb 1.71329 13.7401
rfemur -52.1063 0.769817 6.00457
rtibia 65.9805
rfoot -22.8362 7.53061
rtoes 6.51521
lfemur -34.5677 36.7745 -15.6674
ltibia 57.3637
lfoot -20.2136 20.8413
ltoes -11.4322
